<svg width="580" height="580" viewBox="0 0 580 580" fill="none" xmlns="http://www.w3.org/2000/svg">
<rect width="580" height="580" fill="white"/>
<path d="M62.1239 229.11V172.713H97.2211V158.174C97.2211 96.182 133.383 62.1239 189.564 62.1239C233.862 62.1239 263.549 84.4621 273.261 125.217L224.619 140.858C219.209 127.993 211.117 120.194 197.614 120.194C180.875 120.194 174.401 133.589 174.401 152.049V172.713H236.502V229.11H174.401V420.681H97.2211V229.11H62.1239Z" fill="#00243D"/>
<path d="M517.876 149.803C491.979 149.803 466.593 166.545 452.537 186.68C432.561 173.242 405.045 166.016 375.869 166.016C310.019 166.016 263.038 198.4 263.038 250.919C263.038 277.707 275.433 299.517 297.028 314.013C272.196 323.529 257.075 341.946 257.075 364.857C257.075 386.05 269.512 405.084 291.107 412.309C263.549 415.129 244.68 432.973 244.68 455.884C244.68 502.235 302.437 517.876 369.948 517.876C446.617 517.876 517.876 490.515 517.876 428.523C517.876 387.768 490.36 358.16 436.905 358.16H338.642C322.967 358.16 316.493 350.89 316.493 341.374C316.493 335.249 319.176 330.755 322.967 327.407C338.642 332.429 356.446 335.249 375.869 335.249C441.761 335.249 489.253 302.865 489.253 250.919C489.253 238.054 486.016 226.863 480.649 216.817C492.533 213.469 506.546 211.794 517.876 211.794V149.803ZM333.232 427.422H417.994C435.798 427.422 445.552 431.872 445.552 445.266C445.552 463.727 413.692 473.2 370.459 473.2C335.362 473.2 311.084 465.93 311.084 446.412C311.084 433.546 320.795 427.422 333.232 427.422ZM410.242 276.562C410.242 281.276 406.536 285.065 402.021 285.065H351.377C346.82 285.065 343.157 281.276 343.157 276.562V224.175C343.157 219.505 346.82 215.672 351.377 215.672H402.021C406.536 215.672 410.242 219.505 410.242 224.175V276.562Z" fill="#00243D"/>
<path d="M403.006 287.788H349.56C344.751 287.788 340.885 283.678 340.885 278.564V221.79C340.885 216.676 344.751 212.566 349.56 212.566H403.006C407.816 212.566 411.681 216.676 411.681 221.79V278.612C411.681 283.678 407.816 287.788 403.006 287.788Z" fill="#89E101"/>
</svg>
