<svg fill="none" height="68" viewBox="0 0 69 68" width="69" xmlns="http://www.w3.org/2000/svg"><g fill="#000"><path d="m34.57 67.33c-6.6888.0046-13.2275-1.9831-18.782-5.7096-5.5546-3.7266-9.87331-9.0231-12.40545-15.2142-2.532147-6.191-3.162939-12.9959-1.81193-19.5469 1.35101-6.5509 4.62259-12.551 9.39748-17.23512 4.7749-4.68407 10.8368-7.83981 17.4125-9.064753 6.5757-1.224941 13.3672-.4635701 19.5085 2.187013 6.1412 2.65058 11.3538 7.07025 14.973 12.69536 3.6192 5.6251 5.481 12.2007 5.3479 18.8882-.1625 8.8122-3.779 17.2081-10.0707 23.3801-6.2918 6.1721-14.7556 9.6266-23.5693 9.6199zm0-1.9c6.2838.0158 12.4311-1.8316 17.6652-5.3088 5.2341-3.4771 9.3199-8.4278 11.741-14.2265 2.4211-5.7986 3.0688-12.1848 1.8613-18.3515-1.2075-6.1666-4.216-11.8369-8.6453-16.2942-4.4293-4.45722-10.0806-7.50135-16.2395-8.74761-6.159-1.24625-12.5491-.63869-18.3629 1.74589-5.8137 2.38459-10.7901 6.43912-14.30003 11.65122-3.50997 5.2121-5.39602 11.3478-5.41977 17.6315-.02125 8.4357 3.30811 16.5347 9.2562 22.5165 5.9481 5.9819 14.0281 9.357 22.4638 9.3835z"/><path d="m12.19 33.3c1.81-1.13 3.62-2.3 5.47-3.38 2.3561-1.3984 4.9328-2.3858 7.62-2.92 2.9388-.6589 6.0184-.1611 8.6 1.39 2.0997 1.3548 3.7985 3.247 4.92 5.48 1.612 3.0592 2.694 6.3693 3.2 9.79.1.62.18 1.24.28 1.86h-.14c-.18-.47-.35-1-.53-1.42-1.1704-3.2753-3.0917-6.2309-5.61-8.63-3.1434-2.8823-7.2552-4.4777-11.52-4.47-4.0079-.0567-7.9833.7268-11.67 2.3l-.44.18c-.0326.01-.0674.01-.1 0z"/><path d="m44.56 49.08c.54-1.3 1.11-2.58 1.6-3.9 1.9652-4.7785 2.984-9.8932 3-15.06.0466-3.4322-1.0669-6.7796-3.16-9.5-.12-.15-.25-.3-.38-.44s-.25-.29-.48-.55c.23.09.33.11.42.16 3.0249 1.565 5.5323 3.9718 7.22 6.93.8055 1.4836 1.291 3.1196 1.4254 4.8023.1343 1.6828-.0855 3.3751-.6454 4.9677-1.1426 3.3284-2.9799 6.3758-5.39 8.94-1.13 1.29-2.36 2.51-3.54 3.76z"/><path d="m45.47 35.26c-.9249-2.4328-2.1261-4.7513-3.58-6.91-1.7397-2.6594-4.2525-4.722-7.2-5.91-2.808-1.055-5.8776-1.195-8.77-.4-.51.13-1 .3-1.5.45l-.07-.12c1.21-.76 2.4-1.57 3.64-2.29 1.6708-1.0203 3.5147-1.7253 5.44-2.08 1.6179-.3488 3.3044-.1813 4.8221.4789 1.5176.6602 2.79 1.7798 3.6379 3.2011 1.3014 1.9576 2.1927 4.1585 2.62 6.47.43 2.15.65 4.34 1 6.51.0008.2007-.0125.4012-.04.6z"/><path d="m10.32 40.07c1-.49 2-1 3-1.47 2.9338-1.4222 6.0604-2.4061 9.28-2.92 3.51-.47 6.88-.2 9.75 2.18 1.7854 1.5146 3.0022 3.5919 3.45 5.89-1-.81-1.93-1.74-3-2.48-2.1074-1.3607-4.5053-2.2068-7-2.47-4.6485-.5349-9.3561-.1957-13.88 1l-1.57.39z"/></g></svg>